<svg width="256" height="256" viewBox="0 0 256 256" fill="none" xmlns="http://www.w3.org/2000/svg">
<g clip-path="url(#clip0_120_305)">
<path d="M128 0C94.0523 0 61.495 13.4857 37.4903 37.4903C13.4857 61.495 0 94.0523 0 128C0 161.948 13.4857 194.505 37.4903 218.51C61.495 242.514 94.0523 256 128 256C161.948 256 194.505 242.514 218.51 218.51C242.514 194.505 256 161.948 256 128C256 94.0523 242.514 61.495 218.51 37.4903C194.505 13.4857 161.948 0 128 0ZM128 73.3772C142.487 73.3772 156.38 79.1321 166.624 89.3758C176.868 99.6196 182.623 113.513 182.623 128C182.623 142.487 176.868 156.38 166.624 166.624C156.38 176.868 142.487 182.623 128 182.623C113.513 182.623 99.6196 176.868 89.3758 166.624C79.1321 156.38 73.3772 142.487 73.3772 128C73.3772 113.513 79.1321 99.6196 89.3758 89.3758C99.6196 79.1321 113.513 73.3772 128 73.3772Z" fill="#333333"/>
<path d="M128 56.8887C109.14 56.8887 91.0526 64.3807 77.7166 77.7166C64.3807 91.0526 56.8887 109.14 56.8887 128C56.8887 146.86 64.3807 164.947 77.7166 178.283C91.0526 191.619 109.14 199.111 128 199.111C137.338 199.111 146.585 197.272 155.213 193.698C163.84 190.124 171.68 184.886 178.283 178.283C184.886 171.68 190.124 163.84 193.698 155.213C197.272 146.585 199.111 137.338 199.111 128C199.111 118.661 197.272 109.414 193.698 100.787C190.124 92.1591 184.886 84.3199 178.283 77.7166C171.68 71.1134 163.84 65.8754 155.213 62.3017C146.585 58.728 137.338 56.8887 128 56.8887ZM128 73.3755C142.487 73.3755 156.38 79.1304 166.624 89.3742C176.868 99.618 182.623 113.511 182.623 127.998C182.623 135.172 181.21 142.274 178.465 148.902C175.72 155.529 171.696 161.55 166.624 166.623C161.552 171.695 155.53 175.718 148.903 178.463C142.276 181.208 135.173 182.621 128 182.621C113.513 182.621 99.6194 176.866 89.3756 166.623C79.1319 156.379 73.377 142.485 73.377 127.998C73.377 113.511 79.1319 99.618 89.3756 89.3742C99.6194 79.1304 113.513 73.3755 128 73.3755Z" fill="#A8A8A8"/>
<path d="M128 68.7412C112.283 68.7412 97.2106 74.9846 86.0974 86.0978C74.9841 97.2111 68.7407 112.284 68.7407 128C68.7407 143.717 74.9841 158.79 86.0974 169.903C97.2106 181.016 112.283 187.26 128 187.26C143.717 187.26 158.789 181.016 169.903 169.903C181.016 158.79 187.259 143.717 187.259 128C187.259 112.284 181.016 97.2111 169.903 86.0978C158.789 74.9846 143.717 68.7412 128 68.7412ZM123.733 77.2456V107.122C122.166 107.444 120.639 107.941 119.182 108.604L101.632 84.4478C108.346 80.3766 115.91 77.912 123.734 77.2461L123.733 77.2456ZM132.267 77.2512C140.088 77.9198 147.648 80.3861 154.359 84.4576L136.82 108.598C135.363 107.929 133.836 107.426 132.267 107.099L132.267 77.2512ZM161.284 89.4439C167.223 94.5821 171.893 101.023 174.931 108.264L146.534 117.491C145.746 116.097 144.803 114.797 143.723 113.614L161.284 89.4439ZM94.7337 89.4735L112.276 113.619C111.192 114.799 110.244 116.097 109.45 117.489L81.0236 108.252C84.0857 101.02 88.7779 94.5932 94.7338 89.474L94.7337 89.4735ZM127.999 113.778C129.866 113.778 131.716 114.146 133.441 114.861C135.167 115.576 136.735 116.623 138.055 117.944C139.376 119.265 140.423 120.832 141.138 122.558C141.853 124.283 142.221 126.133 142.221 128.001C142.221 131.773 140.722 135.39 138.055 138.057C135.388 140.724 131.771 142.223 127.999 142.223C124.227 142.223 120.609 140.724 117.942 138.057C115.275 135.39 113.776 131.773 113.776 128.001C113.776 124.229 115.275 120.611 117.942 117.944C120.609 115.277 124.227 113.778 127.999 113.778ZM78.4341 116.382L106.814 125.603C106.72 126.399 106.67 127.199 106.666 128C106.675 128.8 106.729 129.599 106.827 130.393L78.4414 139.616C77.5288 135.811 77.0574 131.913 77.0367 128C77.0548 124.087 77.5238 120.188 78.4341 116.382ZM177.558 116.384C178.471 120.189 178.942 124.087 178.963 128.001C178.945 131.915 178.476 135.813 177.566 139.62L149.186 130.399C149.28 129.603 149.329 128.802 149.333 128.001C149.325 127.201 149.271 126.401 149.172 125.607L177.558 116.384ZM109.467 138.509C110.255 139.902 111.198 141.201 112.276 142.383L94.7151 166.554C88.7781 161.416 84.1086 154.976 81.0708 147.736L109.467 138.509ZM146.55 138.514L174.977 147.75C171.915 154.982 167.224 161.408 161.268 166.527L143.725 142.382C144.808 141.202 145.756 139.904 146.55 138.513V138.514ZM136.821 147.397L154.372 171.553C147.657 175.624 140.093 178.089 132.269 178.755V148.879C133.837 148.557 135.364 148.06 136.821 147.396L136.821 147.397ZM119.178 147.4C120.636 148.071 122.165 148.574 123.736 148.901V178.75C115.914 178.081 108.352 175.614 101.64 171.541L119.178 147.4Z" fill="#7F7F7F"/>
<path d="M184.676 203.003L193.01 196.233C195.519 194.422 198.135 195.571 200.856 199.68C203.577 203.789 203.699 206.957 201.221 209.185L193.1 215.77L191.028 212.66L198.196 206.834C198.436 206.662 198.627 206.433 198.753 206.166C198.878 205.9 198.933 205.606 198.912 205.312C198.344 203.463 197.355 201.771 196.025 200.367C195.822 200.165 195.559 200.035 195.276 199.998C194.992 199.96 194.704 200.017 194.456 200.159L186.842 206.322L184.676 203.003ZM189.284 217.946L185.491 220.293L178.745 206.544L182.609 204.146L189.284 217.946ZM176.806 208.052L181.784 222.606L172.373 226.915C169.687 228.214 167.729 227.326 166.5 224.251L163.11 214.329L166.798 212.641L169.851 221.762C170.093 222.734 170.619 223.004 171.425 222.563L176.55 220.193L172.98 209.763L176.806 208.052ZM150.462 233.652L149.831 229.385L157.416 227.489L156.667 222.341C156.456 221.449 155.879 221.073 154.937 221.212L145.953 223.45L145.304 219.183L155.473 216.652C158.731 216.02 160.607 217.513 161.1 221.132L161.858 226.394L163.067 226.072L163.684 230.338L150.462 233.652ZM127.825 235.771L128.45 220.501L138.714 219.89C141.672 219.649 143.164 221.174 143.189 224.464L142.772 234.894L138.747 235.131L139.221 225.593C139.34 224.602 138.946 224.171 138.046 224.289L132.461 224.621L132.02 235.525L127.825 235.771ZM119.609 228.603L114.048 227.902C113.873 227.862 113.692 227.858 113.516 227.889C113.34 227.92 113.171 227.986 113.021 228.083C112.87 228.18 112.74 228.307 112.639 228.454C112.538 228.602 112.467 228.769 112.431 228.944C112.21 229.731 112.539 230.25 113.418 230.499L119.021 231.196L119.609 228.603ZM122.762 235.496L112.275 234.192C109.175 233.273 107.883 231.376 108.402 228.504C108.51 227.519 108.853 226.575 109.402 225.75C109.95 224.925 110.688 224.244 111.554 223.763L110.061 218.548L115.1 219.179L116.561 224.194L120.567 224.692L121.614 220.041L126.151 220.596L122.762 235.496ZM100.48 226.356L101.134 224.863L94.6868 222.838L94.1701 224.014C93.6107 225.067 93.7403 225.795 94.5588 226.2L98.4652 227.408C99.5177 227.709 100.189 227.358 100.48 226.356ZM108.482 218.339L104.396 227.92C103.008 230.765 100.727 231.757 97.5503 230.898L92.6294 229.343C89.8418 228.259 88.9853 226.299 90.0599 223.464L94.1748 213.831L98.0338 215.04L96.2039 219.307L102.651 221.359L104.476 217.064L108.482 218.339ZM71.8649 219.672L74.259 216.064L81.1473 219.728L84.0344 215.424C84.1446 215.262 84.2187 215.079 84.2515 214.886C84.2844 214.693 84.2754 214.496 84.225 214.307C84.1746 214.118 84.0841 213.942 83.9595 213.791C83.835 213.64 83.6795 213.518 83.5034 213.433L75.3541 209.067L77.7245 205.468L86.9879 210.384C89.8323 212.085 90.2274 214.455 88.1731 217.496L85.2148 221.909L86.3289 222.478L83.8874 226.062L71.8649 219.672ZM69.1485 205.568C69.2854 205.28 69.3336 204.957 69.2872 204.642C69.2408 204.326 69.1018 204.031 68.8877 203.795L65.5977 201.168C65.3447 200.982 65.0468 200.867 64.7344 200.833C64.4221 200.8 64.1064 200.85 63.8199 200.979C63.2952 201.08 62.4941 201.695 61.4163 202.823C60.3386 203.951 59.7997 204.792 59.7997 205.345C59.8015 205.647 59.8685 205.944 59.9961 206.218C60.1238 206.491 60.3091 206.734 60.5393 206.928L63.0661 208.958C63.4073 209.215 63.8149 209.369 64.2409 209.401C64.6668 209.434 65.0932 209.344 65.4697 209.142C65.9185 209 66.6264 208.447 67.5935 207.483C68.5606 206.497 69.0821 205.857 69.1485 205.549V205.568ZM67.0057 197.035L72.6234 201.543C75.1329 203.537 74.5577 206.382 70.8978 210.076C67.2348 213.84 64.0743 214.669 61.4163 212.56L56.8178 208.848C54.005 206.687 54.4158 203.789 58.0504 200.154C61.5491 196.169 64.5342 195.129 67.0057 197.035Z" fill="#40CB32"/>
<path d="M190.042 41.3418L185.003 49.4067C197.429 58.4053 207.548 70.2177 214.532 83.8776C221.516 97.5376 225.167 112.657 225.186 127.999C225.164 147.086 219.523 165.744 208.965 181.645L216.476 187.513C228.32 169.925 234.653 149.206 234.667 128.002C234.65 111.051 230.592 94.3487 222.832 79.2788C215.071 64.2088 203.831 51.2053 190.042 41.3461V41.3418Z" fill="#40CB32"/>
<path d="M65.9486 41.4023C52.1694 51.2569 40.9355 64.2517 33.1768 79.311C25.4181 94.3703 21.3578 111.061 21.332 128.001C21.3651 149.253 27.7455 170.01 39.655 187.612L47.7057 182.591C36.7315 166.499 30.8462 147.48 30.813 128.001C30.8366 112.669 34.4877 97.5588 41.468 83.9069C48.4484 70.255 58.5598 58.4485 70.9761 49.4521L65.9486 41.4023Z" fill="#40CB32"/>
<path d="M119.377 42.5851C120.532 42.062 121.262 40.8986 121.262 39.5485C121.262 37.7086 119.815 36.033 117.35 36.033H105.717V46.2536H111.37V42.9559H113.219L114.922 46.2536H121.265L119.377 42.5851ZM114.597 40.4802H111.371V38.3168L114.597 38.3276C114.882 38.3276 115.156 38.441 115.358 38.6429C115.559 38.8447 115.673 39.1185 115.673 39.4039C115.673 39.6894 115.559 39.9631 115.358 40.165C115.156 40.3668 114.882 40.4802 114.597 40.4802ZM124.81 46.2535H137.279V43.9701H130.464V42.4661H137.279V40.0018H130.464V38.4977H137.279V36.0329H124.81V46.2535ZM146.787 36.0329H141.132V46.2535H152.513V43.9701H146.787L146.787 36.0329ZM160.111 36.0329H154.458V46.2535H165.838V43.9701H160.111L160.111 36.0329ZM171.325 26.7065H82.9673V46.2075H92.7526V33.957L171.326 33.9589C171.807 33.9663 172.284 33.878 172.731 33.6991C173.177 33.5202 173.583 33.2543 173.926 32.9168C174.269 32.5794 174.541 32.1772 174.727 31.7336C174.912 31.29 175.008 30.8138 175.008 30.3329C175.008 29.852 174.913 29.3758 174.727 28.9322C174.541 28.4886 174.269 28.0863 173.926 27.7488C173.584 27.4114 173.177 27.1454 172.731 26.9665C172.285 26.7875 171.807 26.6991 171.326 26.7065H171.325ZM160.471 31.4861H92.7493V29.1732L160.471 29.1796C160.624 29.1765 160.777 29.204 160.919 29.2606C161.062 29.3172 161.192 29.4016 161.302 29.509C161.411 29.6164 161.498 29.7446 161.558 29.8861C161.617 30.0275 161.648 30.1794 161.648 30.3329C161.648 30.4863 161.617 30.6382 161.558 30.7797C161.498 30.9211 161.411 31.0493 161.302 31.1567C161.192 31.2641 161.062 31.3486 160.919 31.4051C160.777 31.4617 160.624 31.4892 160.471 31.4861ZM96.0015 46.2535H101.655V36.0329H96.0015V46.2535ZM168.193 46.2535H173.848V36.0329H168.193V46.2535Z" fill="#40CB32"/>
</g>
<defs>
<clipPath id="clip0_120_305">
<rect width="256" height="256" fill="white"/>
</clipPath>
</defs>
</svg>
