<svg width="256" height="256" viewBox="0 0 256 256" fill="none" xmlns="http://www.w3.org/2000/svg">
<g clip-path="url(#clip0_120_273)">
<path d="M128 0C94.0523 0 61.495 13.4857 37.4903 37.4903C13.4857 61.495 0 94.0523 0 128C0 161.948 13.4857 194.505 37.4903 218.51C61.495 242.514 94.0523 256 128 256C161.948 256 194.505 242.514 218.51 218.51C242.514 194.505 256 161.948 256 128C256 94.0523 242.514 61.495 218.51 37.4903C194.505 13.4857 161.948 0 128 0ZM128 73.3772C142.487 73.3772 156.38 79.1321 166.624 89.3758C176.868 99.6196 182.623 113.513 182.623 128C182.623 142.487 176.868 156.38 166.624 166.624C156.38 176.868 142.487 182.623 128 182.623C113.513 182.623 99.6196 176.868 89.3758 166.624C79.1321 156.38 73.3772 142.487 73.3772 128C73.3772 113.513 79.1321 99.6196 89.3758 89.3758C99.6196 79.1321 113.513 73.3772 128 73.3772Z" fill="#333333"/>
<path d="M128 56.8887C109.14 56.8887 91.0526 64.3807 77.7166 77.7166C64.3807 91.0526 56.8887 109.14 56.8887 128C56.8887 146.86 64.3807 164.947 77.7166 178.283C91.0526 191.619 109.14 199.111 128 199.111C137.338 199.111 146.585 197.272 155.213 193.698C163.84 190.124 171.68 184.886 178.283 178.283C184.886 171.68 190.124 163.84 193.698 155.213C197.272 146.585 199.111 137.338 199.111 128C199.111 118.661 197.272 109.414 193.698 100.787C190.124 92.1591 184.886 84.3199 178.283 77.7166C171.68 71.1134 163.84 65.8754 155.213 62.3017C146.585 58.728 137.338 56.8887 128 56.8887ZM128 73.3755C142.487 73.3755 156.38 79.1304 166.624 89.3742C176.868 99.618 182.623 113.511 182.623 127.998C182.623 135.172 181.21 142.274 178.465 148.902C175.72 155.529 171.696 161.55 166.624 166.623C161.552 171.695 155.53 175.718 148.903 178.463C142.276 181.208 135.173 182.621 128 182.621C113.513 182.621 99.6194 176.866 89.3756 166.623C79.1319 156.379 73.377 142.485 73.377 127.998C73.377 113.511 79.1319 99.618 89.3756 89.3742C99.6194 79.1304 113.513 73.3755 128 73.3755Z" fill="#A8A8A8"/>
<path d="M128 68.7407C112.283 68.7407 97.2106 74.9841 86.0974 86.0974C74.9841 97.2106 68.7407 112.283 68.7407 128C68.7407 143.717 74.9841 158.789 86.0974 169.903C97.2106 181.016 112.283 187.259 128 187.259C143.717 187.259 158.789 181.016 169.903 169.903C181.016 158.789 187.259 143.717 187.259 128C187.259 112.283 181.016 97.2106 169.903 86.0974C158.789 74.9841 143.717 68.7407 128 68.7407ZM123.733 77.2451V107.121C122.166 107.443 120.639 107.94 119.182 108.604L101.632 84.4473C108.346 80.3761 115.91 77.9115 123.734 77.2456L123.733 77.2451ZM132.267 77.2507C140.088 77.9194 147.648 80.3856 154.359 84.4571L136.82 108.598C135.363 107.929 133.836 107.426 132.267 107.099L132.267 77.2507ZM161.284 89.4434C167.223 94.5816 171.893 101.023 174.931 108.264L146.534 117.491C145.746 116.097 144.803 114.796 143.723 113.614L161.284 89.4434ZM94.7337 89.473L112.276 113.619C111.192 114.798 110.244 116.096 109.45 117.488L81.0236 108.251C84.0857 101.019 88.7779 94.5927 94.7338 89.4736L94.7337 89.473ZM127.999 113.778C129.866 113.778 131.716 114.146 133.441 114.86C135.167 115.575 136.735 116.623 138.055 117.943C139.376 119.264 140.423 120.832 141.138 122.557C141.853 124.283 142.221 126.132 142.221 128C142.221 131.772 140.722 135.39 138.055 138.057C135.388 140.724 131.771 142.222 127.999 142.222C124.227 142.222 120.609 140.724 117.942 138.057C115.275 135.39 113.776 131.772 113.776 128C113.776 124.228 115.275 120.611 117.942 117.943C120.609 115.276 124.227 113.778 127.999 113.778ZM78.4341 116.382L106.814 125.603C106.72 126.398 106.67 127.199 106.666 128C106.675 128.8 106.729 129.599 106.827 130.393L78.4414 139.616C77.5288 135.811 77.0574 131.913 77.0367 128C77.0548 124.086 77.5238 120.188 78.4341 116.382ZM177.558 116.383C178.471 120.189 178.942 124.087 178.963 128C178.945 131.914 178.476 135.813 177.566 139.62L149.186 130.398C149.28 129.602 149.329 128.802 149.333 128C149.325 127.2 149.271 126.401 149.172 125.607L177.558 116.383ZM109.467 138.508C110.255 139.901 111.198 141.201 112.276 142.383L94.7151 166.554C88.7781 161.416 84.1086 154.975 81.0708 147.735L109.467 138.508ZM146.55 138.513L174.977 147.75C171.915 154.981 167.224 161.408 161.268 166.527L143.725 142.381C144.808 141.202 145.756 139.904 146.55 138.513V138.513ZM136.821 147.396L154.372 171.553C147.657 175.624 140.093 178.089 132.269 178.754V148.878C133.837 148.556 135.364 148.059 136.821 147.396L136.821 147.396ZM119.178 147.4C120.636 148.07 122.165 148.574 123.736 148.901V178.749C115.914 178.08 108.352 175.613 101.64 171.541L119.178 147.4Z" fill="#7F7F7F"/>
<path fill-rule="evenodd" clip-rule="evenodd" d="M119.377 42.5856C120.532 42.0625 121.262 40.8991 121.262 39.549C121.262 37.7091 119.815 36.0335 117.35 36.0335H105.717V46.2541H111.37V42.9564H113.219L114.922 46.2541H121.264L119.377 42.5856ZM114.597 40.4807H111.371V38.3173L114.597 38.3281C114.882 38.3281 115.156 38.4415 115.358 38.6434C115.559 38.8452 115.673 39.119 115.673 39.4044C115.673 39.6899 115.559 39.9636 115.358 40.1655C115.156 40.3673 114.882 40.4807 114.597 40.4807ZM124.81 46.254H137.279V43.9706H130.464V42.4666H137.279V40.0023H130.464V38.4982H137.279V36.0334H124.81V46.254ZM146.787 36.0334H141.132V46.254H152.513V43.9706H146.787L146.787 36.0334ZM160.111 36.0334H154.458V46.254H165.838V43.9706H160.111L160.111 36.0334ZM171.325 26.707H82.9673V46.208H92.7526V33.9575L171.326 33.9594C171.807 33.9668 172.284 33.8784 172.731 33.6996C173.177 33.5207 173.583 33.2548 173.926 32.9173C174.269 32.5799 174.541 32.1777 174.727 31.7341C174.912 31.2905 175.008 30.8143 175.008 30.3334C175.008 29.8525 174.913 29.3763 174.727 28.9327C174.541 28.4891 174.269 28.0868 173.926 27.7493C173.584 27.4119 173.177 27.1459 172.731 26.9669C172.285 26.788 171.807 26.6996 171.326 26.707H171.325ZM160.471 31.4866H92.7493V29.1737L160.471 29.1801C160.624 29.177 160.777 29.2045 160.919 29.2611C161.062 29.3177 161.192 29.4021 161.301 29.5095C161.411 29.6169 161.498 29.7451 161.558 29.8865C161.617 30.028 161.648 30.1799 161.648 30.3333C161.648 30.4868 161.617 30.6387 161.558 30.7802C161.498 30.9216 161.411 31.0498 161.301 31.1572C161.192 31.2646 161.062 31.349 160.919 31.4056C160.777 31.4622 160.624 31.4897 160.471 31.4866ZM96.0014 46.254H101.655V36.0334H96.0014V46.254ZM168.193 46.254H173.848V36.0334H168.193V46.254ZM140.277 235.713L140.254 235.849C140.242 235.903 140.219 235.953 140.188 235.999L140.196 235.897C140.212 235.831 140.27 235.781 140.277 235.713ZM122.971 229.496C122.967 229.505 122.965 229.515 122.962 229.523C122.964 229.519 122.964 229.514 122.966 229.509L122.971 229.496ZM117.568 218.694C117.225 218.672 116.883 218.735 116.564 218.863C116.2 219.001 115.884 219.245 115.671 219.571L115.596 219.686L114.722 222.109L114.713 222.284C114.696 222.616 114.832 222.984 115.012 223.209C115.192 223.435 115.382 223.552 115.547 223.634L115.579 223.649C115.851 223.775 116.146 223.845 116.445 223.854L124.921 224.226L124.411 225.62L115.117 225.22L115.241 225.233C114.487 225.12 113.727 225.45 113.294 226.079L113.209 226.202L112.328 228.612L112.319 228.792C112.291 229.351 112.739 229.912 113.036 230.097L113.057 230.111L113.078 230.123C113.365 230.286 113.686 230.376 114.015 230.386L122.509 230.755L121.362 233.877L112.065 233.473H112.044C111.761 233.47 111.484 233.536 111.218 233.631C110.764 233.76 110.376 234.061 110.169 234.488L110.144 234.542L109.293 236.87L109.284 237.053C109.265 237.489 109.535 238.072 109.92 238.337C110.305 238.603 110.67 238.641 110.995 238.641L123.975 239.206L124.021 239.204C124.461 239.188 124.876 239.011 125.206 238.721C125.479 238.503 125.708 238.236 125.861 237.921L125.887 237.869L132.017 221.24L132.024 221.053C132.04 220.67 131.928 220.294 131.718 219.975C131.442 219.551 130.978 219.28 130.471 219.261L117.568 218.694ZM187.76 215.704L187.8 215.781C187.803 215.788 187.808 215.82 187.81 215.825C187.818 215.841 187.763 215.717 187.764 215.718C187.764 215.718 187.76 215.705 187.76 215.704ZM154.99 215.443L141.093 218.444C140.757 218.51 140.444 218.657 140.168 218.859C139.845 219.085 139.596 219.404 139.474 219.78L139.432 219.907L139.2 222.481L139.24 222.66C139.384 223.311 139.997 223.652 140.399 223.731C140.688 223.791 140.986 223.795 141.275 223.731L148.027 222.272L138.275 234.603L138.259 234.625C138.163 234.759 138.118 234.919 138.058 235.073L137.87 235.287L137.622 238.129L137.658 238.3C137.749 238.735 138.183 239.234 138.607 239.383C139.032 239.532 139.362 239.485 139.663 239.421L139.665 239.42L153.571 236.412C153.89 236.347 154.185 236.203 154.451 236.016C154.841 235.769 155.123 235.38 155.207 234.923L155.216 234.872L155.447 232.408L155.407 232.225C155.269 231.605 154.68 231.251 154.333 231.155L154.313 231.149L154.294 231.145C153.984 231.071 153.662 231.071 153.353 231.145L146.441 232.621L156.411 219.711C156.657 219.396 156.815 219.02 156.87 218.624L156.874 218.595L157.034 216.717L156.994 216.537C156.897 216.11 156.454 215.612 156.028 215.47C155.602 215.328 155.281 215.38 154.99 215.443L154.99 215.443ZM93.2698 214.073L93.2708 214.079C93.2821 214.159 93.2821 214.241 93.2708 214.321L93.2698 214.323C93.2717 214.24 93.282 214.156 93.2698 214.073ZM92.5911 212.556L92.3143 212.6C91.8527 212.673 91.4416 212.939 91.1856 213.33L91.1374 213.404L90.9476 213.818L90.9235 213.989C90.9148 214.05 90.9245 214.112 90.9235 214.174L90.9059 214.295L91.1763 218.173C90.9244 218.179 90.6734 218.13 90.4226 218.158C89.6324 218.239 88.8527 218.401 88.0958 218.642C87.3433 218.878 86.6224 219.205 85.9476 219.613C85.2757 220.011 84.6941 220.545 84.2421 221.182L84.2411 221.184L81.7189 224.76L81.5254 225.262L81.5143 225.296C81.3207 225.905 81.267 226.549 81.3522 227.182C81.4276 227.801 81.6229 228.4 81.931 228.943L81.9347 228.95C82.2515 229.5 82.6709 229.982 83.1681 230.375C83.6828 230.795 84.2711 231.114 84.9042 231.313L84.9061 231.314L95.7136 234.685L95.7589 234.695C96.1864 234.792 96.6299 234.726 97.021 234.532C97.3436 234.39 97.6372 234.186 97.8654 233.917L97.8997 233.876L107.963 219.553L107.433 219.973C107.806 219.824 107.91 219.637 107.984 219.531C108.058 219.425 108.089 219.357 108.115 219.299C108.164 219.187 108.187 219.113 108.212 219.033V219.031C108.3 218.755 108.364 218.363 108.179 217.933C107.995 217.503 107.568 217.214 107.247 217.117L104.868 216.374L104.852 216.37C104.41 216.246 103.939 216.31 103.538 216.53C103.245 216.68 102.986 216.89 102.791 217.155L102.783 217.166L94.5713 228.876L88.4036 226.952L88.3915 226.949C88.2371 226.905 88.0936 226.828 87.9693 226.726C87.878 226.647 87.8016 226.553 87.7425 226.448C87.7056 226.376 87.6813 226.297 87.6749 226.216L87.6739 226.203L87.673 226.189C87.6674 226.134 87.6753 226.08 87.6887 226.027L87.6952 226.011L89.1878 223.872C89.2701 223.764 89.3752 223.674 89.4961 223.611L89.5009 223.609L89.5056 223.606C89.7387 223.483 89.9872 223.39 90.2445 223.331L90.25 223.33L90.2556 223.328C90.5437 223.258 90.8389 223.223 91.1352 223.223H91.1419C91.392 223.222 91.6403 223.258 91.8798 223.33L95.4965 224.456H95.9428L95.753 224.441C96.2812 224.526 96.8189 224.299 97.1261 223.861L97.0094 224.003L97.452 223.543L97.6391 222.956L97.6224 222.728L97.053 215.062L97.0558 215.177C97.0636 214.833 96.9292 214.398 96.6725 214.105C96.4157 213.812 96.1099 213.669 95.8419 213.586L92.5911 212.556ZM67.3562 204.557H67.3628C67.6336 204.573 67.9014 204.627 68.1582 204.714L68.1647 204.716L68.1712 204.719C68.4221 204.801 68.6614 204.915 68.8832 205.059C68.8842 205.06 68.8856 205.06 68.887 205.061L74.4474 208.787L74.478 208.805C74.7671 208.975 74.9952 209.229 75.1428 209.53C75.15 209.555 75.1512 209.579 75.1354 209.601L75.103 209.647L75.0752 209.694C75.0728 209.698 75.0701 209.702 75.0659 209.704L75.0039 209.742L74.9465 209.787L68.3592 214.982L68.3426 214.996C68.2942 215.037 68.2359 215.064 68.1731 215.073L68.1453 215.076L68.1185 215.082C67.848 215.134 67.5724 215.154 67.2972 215.142H67.2925C66.9771 215.13 66.6632 215.085 66.3573 215.007L66.3525 215.006L66.3478 215.004C66.112 214.946 65.888 214.849 65.6839 214.718L60.1406 211.008L60.1258 210.999C59.8714 210.839 59.6785 210.599 59.5757 210.317L59.5646 210.286L59.5517 210.257C59.5208 210.184 59.53 210.106 59.5711 210.039L59.585 210.022L59.6582 209.944L66.1027 204.825C66.248 204.727 66.4111 204.656 66.5833 204.622L66.5981 204.619L66.6138 204.615C66.8573 204.559 67.107 204.54 67.3562 204.557ZM67.2636 199.411C66.5194 199.394 65.7753 199.449 65.0414 199.573C64.33 199.684 63.6357 199.885 62.9756 200.173L62.8321 200.235L54.2665 207.058L54.1628 207.217C53.8138 207.747 53.5723 208.34 53.4527 208.963V208.966L53.4517 208.97C53.3355 209.594 53.3368 210.233 53.4517 210.858C53.5625 211.502 53.7901 212.12 54.1258 212.681C54.1262 212.681 54.1263 212.682 54.1268 212.683C54.4893 213.296 54.9895 213.818 55.5879 214.205C55.5888 214.205 55.5888 214.206 55.5898 214.207L63.009 219.17L63.01 219.171C63.6601 219.604 64.3809 219.921 65.1396 220.107C65.8798 220.294 66.639 220.394 67.4025 220.403H67.4035C68.1449 220.412 68.8851 220.343 69.6128 220.2C70.3052 220.072 70.9784 219.855 71.6155 219.555L71.7396 219.497L80.263 212.72L80.4111 212.486C80.7255 212.015 80.9804 211.508 81.1713 210.975L81.1723 210.975C81.3848 210.38 81.4644 209.745 81.4065 209.116L81.4056 209.101L81.4037 209.087C81.3245 208.413 81.086 207.768 80.7083 207.204L80.7036 207.197L80.698 207.189C80.2458 206.536 79.6657 205.982 78.9924 205.561L79.023 205.58L71.5426 200.572L71.5388 200.569C70.9151 200.158 70.2226 199.864 69.4944 199.699C68.764 199.523 68.0168 199.426 67.2657 199.412L67.2636 199.411ZM193.571 194.842L193.643 195.031C193.614 195.004 193.598 194.937 193.571 194.842ZM194.617 193.024C194.155 192.932 193.678 193.126 193.423 193.327L193.42 193.329L191.45 194.901L191.426 194.921C191.093 195.217 190.892 195.63 190.846 196.072C190.802 196.411 190.832 196.756 190.953 197.076L190.954 197.077L196.039 210.432L190.969 214.482L190.944 214.505C190.72 214.705 190.434 214.821 190.135 214.833H190.134C190.057 214.837 189.986 214.805 189.938 214.745L189.922 214.726L189.85 214.584L188.896 212.113C188.862 212.003 188.848 211.886 188.858 211.771L188.859 211.757L188.859 211.741C188.874 211.497 188.921 211.256 188.999 211.024V211.023C189.097 210.732 189.227 210.453 189.386 210.191L189.391 210.183L189.396 210.175C189.536 209.937 189.718 209.727 189.935 209.556L189.937 209.554L192.556 207.46L192.575 207.444C192.779 207.266 192.94 207.048 193.08 206.817C193.36 206.415 193.463 205.912 193.334 205.437L193.32 205.387L192.456 203.052L192.343 202.907C192.053 202.535 191.379 202.29 190.936 202.368C190.493 202.447 190.236 202.638 189.997 202.833C189.996 202.834 189.995 202.834 189.995 202.834L186.5 205.645L186.489 205.656C185.886 206.166 185.383 206.785 185.001 207.478C184.575 208.205 184.233 208.98 183.986 209.786C183.731 210.59 183.576 211.422 183.524 212.264C183.455 213.101 183.578 213.943 183.887 214.724L185.429 218.795L185.732 219.234L185.757 219.266C186.155 219.769 186.659 220.177 187.233 220.462C187.786 220.742 188.389 220.913 189.007 220.963C189.636 221.016 190.27 220.945 190.873 220.757C191.527 220.56 192.137 220.235 192.664 219.8L201.492 212.751L201.527 212.717C201.844 212.417 202.029 212.013 202.087 211.583C202.158 211.244 202.171 210.894 202.087 210.557L202.07 210.486L195.865 194.204C195.818 194.022 195.748 193.913 195.705 193.843C195.64 193.737 195.586 193.672 195.529 193.604C195.354 193.385 195.074 193.115 194.617 193.024ZM65.9481 41.4056C52.1689 51.2602 40.935 64.255 33.1763 79.3143C25.4176 94.3736 21.3573 111.064 21.3315 128.005C21.3646 149.256 27.745 170.014 39.6545 187.615L47.7052 182.594C36.731 166.502 30.8457 147.483 30.8126 128.005C30.8361 112.672 34.4872 97.5621 41.4675 83.9102C48.4479 70.2583 58.5594 58.4518 70.9756 49.4554L65.9481 41.4056ZM190.042 41.3454L185.003 49.4104C197.428 58.4089 207.547 70.2213 214.531 83.8813C221.515 97.5412 225.166 112.661 225.185 128.002C225.164 147.089 219.522 165.747 208.965 181.649L216.475 187.516C228.319 169.928 234.653 149.21 234.667 128.006C234.649 111.055 230.592 94.3524 222.831 79.2824C215.071 64.2124 203.83 51.209 190.042 41.3497V41.3454Z" fill="#FFD318"/>
</g>
<defs>
<clipPath id="clip0_120_273">
<rect width="256" height="256" fill="white"/>
</clipPath>
</defs>
</svg>
