<svg width="218" height="52" viewBox="0 0 218 52" fill="none" xmlns="http://www.w3.org/2000/svg">
<path fill-rule="evenodd" clip-rule="evenodd" d="M46.2864 50L68.4636 28.4844H68.4583C77.1979 20.0104 80.745 18.7239 97.4112 18.7239H163.88L183.005 0H94.8906C72.5833 0 66.2761 2.125 53.1927 15.0729L18 50H46.2864ZM97.8125 21.7136H161.026L143.495 39.2448H98.1406C89.8281 39.2448 87.9894 39.6354 83.8644 43.7604L77.625 50H51.3958L70.7864 30.6094C78.4011 23 81.0262 21.7136 97.8125 21.7136ZM218 0L167.864 50H136.859L186.859 0H218ZM184.989 48.4167C186.031 49.4739 187.344 50 188.922 50C190.5 50 191.797 49.4739 192.823 48.4271C193.849 47.3802 194.359 46.0833 194.359 44.5417C194.359 43 193.844 41.7031 192.812 40.6458C191.781 39.5886 190.479 39.0625 188.901 39.0625C187.323 39.0625 186.016 39.5886 184.979 40.6354C183.942 41.6823 183.422 42.9792 183.422 44.5208C183.422 46.0625 183.943 47.3594 184.989 48.4167ZM185.641 41.2656C186.516 40.3698 187.599 39.9219 188.891 39.9219C190.188 39.9219 191.271 40.3698 192.141 41.2656C193.011 42.1614 193.448 43.25 193.448 44.5312C193.448 45.8125 193.011 46.8958 192.141 47.7864C191.266 48.6771 190.188 49.1198 188.891 49.1198C187.594 49.1198 186.511 48.6719 185.641 47.7761C184.771 46.8802 184.333 45.7969 184.333 44.5208C184.333 43.2448 184.771 42.1614 185.641 41.2656ZM187.823 47.5781V45.4323L187.828 45.4375H189.052L190.089 47.5833H191.354L190.214 45.2812C190.599 45.1042 190.87 44.875 191.031 44.5886C191.193 44.3021 191.271 43.8646 191.271 43.2761C191.271 42.6875 191.073 42.2448 190.677 41.9531C190.281 41.6562 189.687 41.5104 188.901 41.5104H186.62V47.5781H187.823ZM187.802 44.4896V42.4479H188.797C189.656 42.4479 190.083 42.7864 190.083 43.4688C190.083 43.8281 190 44.0886 189.833 44.25C189.672 44.4114 189.401 44.4896 189.026 44.4896H187.802Z" fill="#E10600"/>
</svg>
