<svg width="256" height="256" viewBox="0 0 256 256" fill="none" xmlns="http://www.w3.org/2000/svg">
<g clip-path="url(#clip0_120_250)">
<path d="M128 0C94.0523 0 61.495 13.4857 37.4903 37.4903C13.4857 61.495 0 94.0523 0 128C0 161.948 13.4857 194.505 37.4903 218.51C61.495 242.514 94.0523 256 128 256C161.948 256 194.505 242.514 218.51 218.51C242.514 194.505 256 161.948 256 128C256 94.0523 242.514 61.495 218.51 37.4903C194.505 13.4857 161.948 0 128 0ZM128 73.3772C142.487 73.3772 156.38 79.1321 166.624 89.3758C176.868 99.6196 182.623 113.513 182.623 128C182.623 142.487 176.868 156.38 166.624 166.624C156.38 176.868 142.487 182.623 128 182.623C113.513 182.623 99.6196 176.868 89.3758 166.624C79.1321 156.38 73.3772 142.487 73.3772 128C73.3772 113.513 79.1321 99.6196 89.3758 89.3758C99.6196 79.1321 113.513 73.3772 128 73.3772Z" fill="#333333"/>
<path d="M190.042 41.3428L185.003 49.4077C197.429 58.4062 207.547 70.2187 214.531 83.8786C221.516 97.5386 225.166 112.658 225.185 128C225.164 147.087 219.523 165.745 208.965 181.646L216.475 187.514C228.319 169.926 234.653 149.207 234.667 128.003C234.649 111.052 230.592 94.3497 222.831 79.2797C215.071 64.2098 203.83 51.2063 190.042 41.347V41.3428Z" fill="#FF2D2C"/>
<path d="M65.9486 41.4028C52.1694 51.2574 40.9355 64.2522 33.1768 79.3115C25.4181 94.3708 21.3578 111.061 21.332 128.002C21.3651 149.254 27.7455 170.011 39.655 187.612L47.7057 182.592C36.7315 166.499 30.8462 147.48 30.813 128.002C30.8366 112.669 34.4877 97.5593 41.468 83.9074C48.4484 70.2555 58.5598 58.449 70.9761 49.4526L65.9486 41.4028Z" fill="#FF2D2C"/>
<path d="M128 56.8887C109.14 56.8887 91.0526 64.3807 77.7166 77.7166C64.3807 91.0526 56.8887 109.14 56.8887 128C56.8887 146.86 64.3807 164.947 77.7166 178.283C91.0526 191.619 109.14 199.111 128 199.111C137.338 199.111 146.585 197.272 155.213 193.698C163.84 190.124 171.68 184.886 178.283 178.283C184.886 171.68 190.124 163.84 193.698 155.213C197.272 146.585 199.111 137.338 199.111 128C199.111 118.661 197.272 109.414 193.698 100.787C190.124 92.1591 184.886 84.3199 178.283 77.7166C171.68 71.1134 163.84 65.8754 155.213 62.3017C146.585 58.728 137.338 56.8887 128 56.8887ZM128 73.3755C142.487 73.3755 156.38 79.1304 166.624 89.3742C176.868 99.618 182.623 113.511 182.623 127.998C182.623 135.172 181.21 142.274 178.465 148.902C175.72 155.529 171.696 161.55 166.624 166.623C161.552 171.695 155.53 175.718 148.903 178.463C142.276 181.208 135.173 182.621 128 182.621C113.513 182.621 99.6194 176.866 89.3756 166.623C79.1319 156.379 73.377 142.485 73.377 127.998C73.377 113.511 79.1319 99.618 89.3756 89.3742C99.6194 79.1304 113.513 73.3755 128 73.3755Z" fill="#A8A8A8"/>
<path d="M128 68.7407C112.283 68.7407 97.2106 74.9841 86.0974 86.0974C74.9841 97.2106 68.7407 112.283 68.7407 128C68.7407 143.717 74.9841 158.789 86.0974 169.903C97.2106 181.016 112.283 187.259 128 187.259C143.717 187.259 158.789 181.016 169.903 169.903C181.016 158.789 187.259 143.717 187.259 128C187.259 112.283 181.016 97.2106 169.903 86.0974C158.789 74.9841 143.717 68.7407 128 68.7407ZM123.733 77.2451V107.121C122.166 107.443 120.639 107.94 119.182 108.604L101.632 84.4473C108.346 80.3761 115.91 77.9115 123.734 77.2456L123.733 77.2451ZM132.267 77.2507C140.088 77.9194 147.648 80.3856 154.359 84.4571L136.82 108.598C135.363 107.929 133.836 107.426 132.267 107.099L132.267 77.2507ZM161.284 89.4434C167.223 94.5816 171.893 101.023 174.931 108.264L146.534 117.491C145.746 116.097 144.803 114.796 143.723 113.614L161.284 89.4434ZM94.7337 89.473L112.276 113.619C111.192 114.798 110.244 116.096 109.45 117.488L81.0236 108.251C84.0857 101.019 88.7779 94.5927 94.7338 89.4736L94.7337 89.473ZM127.999 113.778C129.866 113.778 131.716 114.146 133.441 114.86C135.167 115.575 136.735 116.623 138.055 117.943C139.376 119.264 140.423 120.832 141.138 122.557C141.853 124.283 142.221 126.132 142.221 128C142.221 131.772 140.722 135.39 138.055 138.057C135.388 140.724 131.771 142.222 127.999 142.222C124.227 142.222 120.609 140.724 117.942 138.057C115.275 135.39 113.776 131.772 113.776 128C113.776 124.228 115.275 120.611 117.942 117.943C120.609 115.276 124.227 113.778 127.999 113.778ZM78.4341 116.382L106.814 125.603C106.72 126.398 106.67 127.199 106.666 128C106.675 128.8 106.729 129.599 106.827 130.393L78.4414 139.616C77.5288 135.811 77.0574 131.913 77.0367 128C77.0548 124.086 77.5238 120.188 78.4341 116.382ZM177.558 116.383C178.471 120.189 178.942 124.087 178.963 128C178.945 131.914 178.476 135.813 177.566 139.62L149.186 130.398C149.28 129.602 149.329 128.802 149.333 128C149.325 127.2 149.271 126.401 149.172 125.607L177.558 116.383ZM109.467 138.508C110.255 139.901 111.198 141.201 112.276 142.383L94.7151 166.554C88.7781 161.416 84.1086 154.975 81.0708 147.735L109.467 138.508ZM146.55 138.513L174.977 147.75C171.915 154.981 167.224 161.408 161.268 166.527L143.725 142.381C144.808 141.202 145.756 139.904 146.55 138.513V138.513ZM136.821 147.396L154.372 171.553C147.657 175.624 140.093 178.089 132.269 178.754V148.878C133.837 148.556 135.364 148.059 136.821 147.396L136.821 147.396ZM119.178 147.4C120.636 148.07 122.165 148.574 123.736 148.901V178.749C115.914 178.08 108.352 175.613 101.64 171.541L119.178 147.4Z" fill="#7F7F7F"/>
<path d="M78.3643 206.563C78.9012 206.9 79.3641 207.342 79.7249 207.862C79.9979 208.27 80.1702 208.736 80.2274 209.223C80.2695 209.68 80.2112 210.141 80.0567 210.574C79.8985 211.015 79.6867 211.436 79.4262 211.826L79.3693 211.916L71.1109 218.482C70.5635 218.74 69.9851 218.926 69.39 219.036C68.7406 219.164 68.0797 219.224 67.4179 219.216C66.7462 219.209 66.0779 219.121 65.4268 218.956C64.8001 218.802 64.2049 218.541 63.668 218.183L56.2345 213.21C55.7874 212.921 55.414 212.531 55.1441 212.072C54.882 211.635 54.7036 211.153 54.6179 210.65C54.5278 210.166 54.5278 209.669 54.6179 209.185C54.7082 208.715 54.8902 208.267 55.1536 207.867L63.4499 201.259C64.018 201.011 64.6154 200.837 65.2277 200.742C65.893 200.628 66.5677 200.579 67.2425 200.595C67.912 200.607 68.5781 200.693 69.2289 200.851C69.8199 200.985 70.382 201.224 70.8881 201.557L78.3643 206.563ZM75.681 210.716C75.8557 210.61 76.0009 210.462 76.1029 210.285C76.2303 210.105 76.3087 209.895 76.3303 209.675C76.3519 209.456 76.316 209.235 76.2262 209.033C75.9774 208.511 75.5778 208.075 75.0789 207.782L69.5323 204.065C69.2238 203.865 68.8908 203.706 68.5415 203.591C68.1846 203.469 67.8131 203.396 67.4369 203.373C67.0728 203.348 66.707 203.377 66.3512 203.458C66.018 203.525 65.7019 203.659 65.4221 203.852L58.8561 209.067L58.6855 209.247L58.5859 209.375C58.4553 209.571 58.3756 209.797 58.3541 210.032C58.3325 210.267 58.3699 210.504 58.4626 210.721C58.6553 211.251 59.019 211.701 59.4961 212.001L65.0428 215.713C65.3573 215.916 65.7034 216.065 66.0668 216.154C66.4532 216.252 66.8489 216.309 67.2472 216.325C67.6142 216.34 67.9817 216.313 68.3424 216.244C68.6258 216.203 68.892 216.083 69.1103 215.898L75.681 210.716ZM96.4407 222.815L96.4075 222.919L96.1563 223.18C96.1328 223.213 96.1003 223.239 96.0626 223.255C96.0248 223.271 95.9834 223.276 95.9429 223.27H95.6775L92.2215 222.194C91.8693 222.088 91.5035 222.035 91.1358 222.037C90.7462 222.037 90.3579 222.083 89.9791 222.175C89.6209 222.257 89.275 222.386 88.9504 222.559C88.6713 222.704 88.4283 222.909 88.2392 223.161L86.6511 225.436L86.5563 225.664C86.4935 225.873 86.4725 226.092 86.4946 226.309C86.5141 226.554 86.5835 226.793 86.6985 227.01C86.8295 227.248 87.003 227.46 87.2105 227.636C87.4611 227.843 87.7515 227.996 88.0638 228.086L94.5397 230.106C94.6532 230.135 94.7722 230.135 94.8858 230.106C94.9966 230.087 95.1059 230.06 95.2129 230.025L103.746 217.856C103.837 217.733 103.955 217.634 104.092 217.567C104.158 217.528 104.231 217.503 104.307 217.493C104.383 217.484 104.46 217.489 104.533 217.51L106.904 218.249C107.093 218.306 107.155 218.448 107.084 218.671C107.046 218.795 107.017 218.861 106.994 218.87L96.9622 233.149C96.8443 233.289 96.6947 233.398 96.5261 233.467C96.373 233.552 96.1941 233.577 96.0235 233.538L85.2621 230.182C84.7694 230.026 84.3109 229.779 83.9109 229.452C83.528 229.15 83.2062 228.779 82.9628 228.357C82.7306 227.948 82.5823 227.496 82.5266 227.029C82.4635 226.568 82.504 226.098 82.6452 225.654L82.7732 225.323L85.2099 221.867C85.5667 221.364 86.0254 220.942 86.5563 220.629C87.1516 220.268 87.7883 219.98 88.4526 219.771C89.1356 219.553 89.8394 219.407 90.5527 219.335C91.1837 219.263 91.8214 219.276 92.449 219.373L92.0982 214.338C92.1028 214.307 92.1028 214.275 92.0982 214.243C92.094 214.214 92.094 214.183 92.0982 214.153L92.1788 213.978C92.215 213.923 92.2624 213.875 92.3179 213.84C92.3734 213.804 92.4358 213.78 92.5012 213.769L95.4926 214.717C95.7533 214.798 95.8766 214.94 95.8718 215.149L96.4407 222.815ZM124.795 226.821C124.863 226.821 124.931 226.807 124.993 226.779C125.055 226.751 125.11 226.711 125.155 226.659C125.256 226.563 125.342 226.453 125.411 226.332L126.426 223.564V223.426C126.432 223.345 126.413 223.263 126.369 223.194C126.326 223.128 126.232 223.094 126.089 223.09L116.48 222.668C116.34 222.664 116.203 222.631 116.077 222.573C115.954 222.511 115.892 222.435 115.897 222.345L116.665 220.217C116.742 220.099 116.855 220.009 116.987 219.961C117.147 219.894 117.321 219.865 117.494 219.875L130.427 220.444C130.488 220.447 130.548 220.464 130.601 220.494C130.653 220.525 130.698 220.568 130.73 220.62C130.807 220.733 130.845 220.867 130.84 221.004L124.795 237.402C124.715 237.566 124.599 237.709 124.454 237.819C124.325 237.941 124.157 238.012 123.98 238.018L110.995 237.454C110.634 237.454 110.459 237.321 110.469 237.103L111.237 235.003C111.268 234.939 111.313 234.883 111.369 234.838C111.424 234.794 111.489 234.763 111.559 234.747C111.709 234.686 111.871 234.656 112.033 234.657L121.642 235.074C121.761 235.078 121.879 235.05 121.984 234.994C122.085 234.948 122.182 234.894 122.273 234.832L123.994 230.149C124.01 230.089 124.031 230.03 124.056 229.973C124.072 229.935 124.083 229.895 124.089 229.855C124.089 229.708 123.989 229.632 123.771 229.622L114.053 229.2C113.916 229.196 113.783 229.159 113.664 229.091C113.55 229.02 113.498 228.944 113.503 228.85L114.271 226.749C114.358 226.623 114.479 226.524 114.619 226.462C114.76 226.401 114.915 226.381 115.067 226.403L124.795 226.821ZM143.881 233.993C143.845 234.058 143.822 234.129 143.815 234.202V234.283C143.815 234.349 143.881 234.377 143.967 234.358L153.628 232.296C153.756 232.266 153.889 232.266 154.017 232.296C154.154 232.334 154.23 232.396 154.249 232.481L154.041 234.709C154.028 234.777 154.001 234.842 153.961 234.899C153.921 234.955 153.869 235.002 153.808 235.036C153.668 235.142 153.506 235.215 153.334 235.25L139.416 238.26C139.06 238.336 138.861 238.26 138.818 238.056L139.017 235.776C139.063 235.724 139.091 235.659 139.098 235.591C139.12 235.492 139.162 235.398 139.221 235.316L150.642 220.876V220.686C150.642 220.582 150.523 220.52 150.367 220.553L141.018 222.573C140.89 222.601 140.757 222.601 140.629 222.573C140.496 222.549 140.416 222.488 140.397 222.402L140.601 220.146C140.644 220.012 140.731 219.897 140.847 219.819C140.987 219.712 141.149 219.639 141.321 219.605L155.24 216.6C155.591 216.524 155.79 216.59 155.837 216.799L155.695 218.463C155.67 218.651 155.594 218.829 155.477 218.979L143.881 233.993ZM190.744 203.752C191.052 203.501 191.274 203.463 191.407 203.634L192.189 205.748C192.209 205.818 192.211 205.892 192.197 205.964C192.183 206.035 192.153 206.103 192.109 206.16C192.028 206.307 191.922 206.439 191.796 206.549L189.198 208.626C188.867 208.888 188.587 209.21 188.373 209.574C188.168 209.911 188.001 210.271 187.875 210.645C187.764 210.976 187.697 211.321 187.676 211.669C187.653 211.943 187.683 212.218 187.766 212.48L188.767 215.068L188.861 215.253C188.861 215.296 188.885 215.305 188.861 215.291L189.013 215.485C189.153 215.66 189.332 215.799 189.535 215.891C189.739 215.983 189.961 216.026 190.184 216.016C190.758 215.992 191.306 215.769 191.734 215.386L197.034 211.152C197.125 211.076 197.195 210.978 197.238 210.868C197.284 210.765 197.322 210.659 197.352 210.55L192.061 196.655C192.008 196.513 191.991 196.36 192.014 196.21C192.025 196.054 192.097 195.91 192.213 195.807L194.157 194.256C194.313 194.133 194.46 194.162 194.607 194.347C194.686 194.441 194.724 194.503 194.721 194.531L200.936 210.84C200.98 211.017 200.98 211.203 200.936 211.38C200.924 211.56 200.845 211.73 200.713 211.854L191.91 218.885C191.502 219.221 191.031 219.472 190.525 219.624C190.066 219.768 189.583 219.821 189.103 219.781C188.636 219.743 188.18 219.614 187.762 219.401C187.343 219.194 186.975 218.896 186.685 218.529L186.486 218.24L184.988 214.286C184.744 213.671 184.647 213.007 184.704 212.347C184.749 211.596 184.888 210.854 185.116 210.138C185.338 209.411 185.645 208.712 186.031 208.057C186.344 207.487 186.758 206.979 187.254 206.559L190.744 203.752Z" fill="#FF2D2C" stroke="#FF2D2C" stroke-width="5" stroke-miterlimit="10"/>
<path fill-rule="evenodd" clip-rule="evenodd" d="M119.377 42.5856C120.532 42.0625 121.262 40.8991 121.262 39.549C121.262 37.7091 119.815 36.0335 117.35 36.0335H105.717V46.2541H111.37V42.9564H113.219L114.922 46.2541H121.265L119.377 42.5856ZM114.597 40.4807H111.371V38.3173L114.597 38.3281C114.882 38.3281 115.156 38.4415 115.358 38.6434C115.559 38.8452 115.673 39.119 115.673 39.4044C115.673 39.6899 115.559 39.9636 115.358 40.1655C115.156 40.3673 114.882 40.4807 114.597 40.4807ZM124.81 46.254H137.279V43.9706H130.464V42.4666H137.279V40.0023H130.464V38.4982H137.279V36.0334H124.81V46.254ZM146.787 36.0334H141.132V46.254H152.513V43.9706H146.787L146.787 36.0334ZM160.111 36.0334H154.458V46.254H165.838V43.9706H160.111L160.111 36.0334ZM171.325 26.707H82.9673V46.208H92.7526V33.9575L171.326 33.9594C171.807 33.9668 172.284 33.8784 172.731 33.6996C173.177 33.5207 173.583 33.2548 173.926 32.9173C174.269 32.5799 174.541 32.1777 174.727 31.7341C174.912 31.2905 175.008 30.8143 175.008 30.3334C175.008 29.8525 174.913 29.3763 174.727 28.9327C174.541 28.4891 174.269 28.0868 173.926 27.7493C173.584 27.4119 173.177 27.1459 172.731 26.9669C172.285 26.788 171.807 26.6996 171.326 26.707H171.325ZM160.471 31.4866H92.7493V29.1737L160.471 29.1801C160.624 29.177 160.777 29.2045 160.919 29.2611C161.062 29.3177 161.192 29.4021 161.302 29.5095C161.411 29.6169 161.498 29.7451 161.558 29.8865C161.617 30.028 161.648 30.1799 161.648 30.3333C161.648 30.4868 161.617 30.6387 161.558 30.7802C161.498 30.9216 161.411 31.0498 161.302 31.1572C161.192 31.2646 161.062 31.349 160.919 31.4056C160.777 31.4622 160.624 31.4897 160.471 31.4866ZM96.0015 46.254H101.655V36.0334H96.0015V46.254ZM168.193 46.254H173.848V36.0334H168.193V46.254Z" fill="#FF2D2C"/>
</g>
<defs>
<clipPath id="clip0_120_250">
<rect width="256" height="256" fill="white"/>
</clipPath>
</defs>
</svg>
