<svg width="256" height="256" viewBox="0 0 256 256" fill="none" xmlns="http://www.w3.org/2000/svg">
<g clip-path="url(#clip0_120_328)">
<path d="M128 0C94.0523 0 61.495 13.4857 37.4903 37.4903C13.4857 61.495 0 94.0523 0 128C0 161.948 13.4857 194.505 37.4903 218.51C61.495 242.514 94.0523 256 128 256C161.948 256 194.505 242.514 218.51 218.51C242.514 194.505 256 161.948 256 128C256 94.0523 242.514 61.495 218.51 37.4903C194.505 13.4857 161.948 0 128 0ZM128 73.3772C142.487 73.3772 156.38 79.1321 166.624 89.3758C176.868 99.6196 182.623 113.513 182.623 128C182.623 142.487 176.868 156.38 166.624 166.624C156.38 176.868 142.487 182.623 128 182.623C113.513 182.623 99.6196 176.868 89.3758 166.624C79.1321 156.38 73.3772 142.487 73.3772 128C73.3772 113.513 79.1321 99.6196 89.3758 89.3758C99.6196 79.1321 113.513 73.3772 128 73.3772Z" fill="#333333"/>
<path d="M128 56.8887C109.14 56.8887 91.0526 64.3807 77.7166 77.7166C64.3807 91.0526 56.8887 109.14 56.8887 128C56.8887 146.86 64.3807 164.947 77.7166 178.283C91.0526 191.619 109.14 199.111 128 199.111C137.338 199.111 146.585 197.272 155.213 193.698C163.84 190.124 171.68 184.886 178.283 178.283C184.886 171.68 190.124 163.84 193.698 155.213C197.272 146.585 199.111 137.338 199.111 128C199.111 118.661 197.272 109.414 193.698 100.787C190.124 92.1591 184.886 84.3199 178.283 77.7166C171.68 71.1134 163.84 65.8754 155.213 62.3017C146.585 58.728 137.338 56.8887 128 56.8887ZM128 73.3755C142.487 73.3755 156.38 79.1304 166.624 89.3742C176.868 99.618 182.623 113.511 182.623 127.998C182.623 135.172 181.21 142.274 178.465 148.902C175.72 155.529 171.696 161.55 166.624 166.623C161.552 171.695 155.53 175.718 148.903 178.463C142.276 181.208 135.173 182.621 128 182.621C113.513 182.621 99.6194 176.866 89.3756 166.623C79.1319 156.379 73.377 142.485 73.377 127.998C73.377 113.511 79.1319 99.618 89.3756 89.3742C99.6194 79.1304 113.513 73.3755 128 73.3755Z" fill="#A8A8A8"/>
<path d="M128 68.7412C112.283 68.7412 97.2106 74.9846 86.0974 86.0978C74.9841 97.2111 68.7407 112.284 68.7407 128C68.7407 143.717 74.9841 158.79 86.0974 169.903C97.2106 181.016 112.283 187.26 128 187.26C143.717 187.26 158.789 181.016 169.903 169.903C181.016 158.79 187.259 143.717 187.259 128C187.259 112.284 181.016 97.2111 169.903 86.0978C158.789 74.9846 143.717 68.7412 128 68.7412ZM123.733 77.2456V107.122C122.166 107.444 120.639 107.941 119.182 108.604L101.632 84.4478C108.346 80.3766 115.91 77.912 123.734 77.2461L123.733 77.2456ZM132.267 77.2512C140.088 77.9198 147.648 80.3861 154.359 84.4576L136.82 108.598C135.363 107.929 133.836 107.426 132.267 107.099L132.267 77.2512ZM161.284 89.4439C167.223 94.5821 171.893 101.023 174.931 108.264L146.534 117.491C145.746 116.097 144.803 114.797 143.723 113.614L161.284 89.4439ZM94.7337 89.4735L112.276 113.619C111.192 114.799 110.244 116.097 109.45 117.489L81.0236 108.252C84.0857 101.02 88.7779 94.5932 94.7338 89.474L94.7337 89.4735ZM127.999 113.778C129.866 113.778 131.716 114.146 133.441 114.861C135.167 115.576 136.735 116.623 138.055 117.944C139.376 119.265 140.423 120.832 141.138 122.558C141.853 124.283 142.221 126.133 142.221 128.001C142.221 131.773 140.722 135.39 138.055 138.057C135.388 140.724 131.771 142.223 127.999 142.223C124.227 142.223 120.609 140.724 117.942 138.057C115.275 135.39 113.776 131.773 113.776 128.001C113.776 124.229 115.275 120.611 117.942 117.944C120.609 115.277 124.227 113.778 127.999 113.778ZM78.4341 116.382L106.814 125.603C106.72 126.399 106.67 127.199 106.666 128C106.675 128.8 106.729 129.599 106.827 130.393L78.4414 139.616C77.5288 135.811 77.0574 131.913 77.0367 128C77.0548 124.087 77.5238 120.188 78.4341 116.382ZM177.558 116.384C178.471 120.189 178.942 124.087 178.963 128.001C178.945 131.915 178.476 135.813 177.566 139.62L149.186 130.399C149.28 129.603 149.329 128.802 149.333 128.001C149.325 127.201 149.271 126.401 149.172 125.607L177.558 116.384ZM109.467 138.509C110.255 139.902 111.198 141.201 112.276 142.383L94.7151 166.554C88.7781 161.416 84.1086 154.976 81.0708 147.736L109.467 138.509ZM146.55 138.514L174.977 147.75C171.915 154.982 167.224 161.408 161.268 166.527L143.725 142.382C144.808 141.202 145.756 139.904 146.55 138.513V138.514ZM136.821 147.397L154.372 171.553C147.657 175.624 140.093 178.089 132.269 178.755V148.879C133.837 148.557 135.364 148.06 136.821 147.396L136.821 147.397ZM119.178 147.4C120.636 148.071 122.165 148.574 123.736 148.901V178.75C115.914 178.081 108.352 175.614 101.64 171.541L119.178 147.4Z" fill="#7F7F7F"/>
<path fill-rule="evenodd" clip-rule="evenodd" d="M119.377 42.5851C120.532 42.062 121.262 40.8986 121.262 39.5485C121.262 37.7086 119.815 36.033 117.35 36.033H105.717V46.2536H111.37V42.9559H113.219L114.922 46.2536H121.264L119.377 42.5851ZM114.597 40.4802H111.371V38.3168L114.597 38.3276C114.882 38.3276 115.156 38.441 115.358 38.6429C115.559 38.8447 115.673 39.1185 115.673 39.4039C115.673 39.6894 115.559 39.9631 115.358 40.165C115.156 40.3668 114.882 40.4802 114.597 40.4802ZM124.81 46.2535H137.279V43.9701H130.464V42.4661H137.279V40.0018H130.464V38.4977H137.279V36.0329H124.81V46.2535ZM146.787 36.0329H141.132V46.2535H152.513V43.9701H146.787L146.787 36.0329ZM160.111 36.0329H154.458V46.2535H165.838V43.9701H160.111L160.111 36.0329ZM171.325 26.7065H82.9673V46.2075H92.7526V33.957L171.326 33.9589C171.807 33.9663 172.284 33.878 172.731 33.6991C173.177 33.5202 173.583 33.2543 173.926 32.9168C174.269 32.5794 174.541 32.1772 174.727 31.7336C174.912 31.29 175.008 30.8138 175.008 30.3329C175.008 29.852 174.913 29.3758 174.727 28.9322C174.541 28.4886 174.269 28.0863 173.926 27.7488C173.584 27.4114 173.177 27.1454 172.731 26.9665C172.285 26.7875 171.807 26.6991 171.326 26.7065H171.325ZM160.471 31.4861H92.7493V29.1732L160.471 29.1796C160.624 29.1765 160.777 29.204 160.919 29.2606C161.062 29.3172 161.192 29.4016 161.301 29.509C161.411 29.6164 161.498 29.7446 161.558 29.8861C161.617 30.0275 161.648 30.1794 161.648 30.3329C161.648 30.4863 161.617 30.6382 161.558 30.7797C161.498 30.9211 161.411 31.0493 161.301 31.1567C161.192 31.2641 161.062 31.3486 160.919 31.4051C160.777 31.4617 160.624 31.4892 160.471 31.4861ZM96.0014 46.2535H101.655V36.0329H96.0014V46.2535ZM168.193 46.2535H173.848V36.0329H168.193V46.2535ZM140.277 235.712L140.254 235.849C140.242 235.903 140.219 235.953 140.188 235.999L140.196 235.897C140.212 235.831 140.27 235.781 140.277 235.712ZM122.971 229.496C122.967 229.505 122.965 229.514 122.962 229.523C122.964 229.518 122.964 229.513 122.966 229.509L122.971 229.496ZM117.568 218.693C117.225 218.672 116.883 218.735 116.564 218.863C116.2 219 115.884 219.244 115.671 219.571L115.596 219.686L114.722 222.109L114.713 222.284C114.696 222.616 114.832 222.983 115.012 223.209C115.192 223.435 115.382 223.551 115.547 223.634L115.579 223.649C115.851 223.775 116.146 223.845 116.445 223.853L124.921 224.226L124.411 225.619L115.117 225.22L115.241 225.232C114.487 225.119 113.727 225.45 113.294 226.078L113.209 226.201L112.328 228.612L112.319 228.791C112.291 229.351 112.739 229.911 113.036 230.097L113.057 230.111L113.078 230.123C113.365 230.285 113.686 230.376 114.015 230.386L122.509 230.754L121.362 233.876L112.065 233.473H112.044C111.761 233.47 111.484 233.536 111.218 233.63C110.764 233.759 110.376 234.061 110.169 234.488L110.144 234.541L109.293 236.869L109.284 237.052C109.265 237.489 109.535 238.071 109.92 238.337C110.305 238.602 110.67 238.64 110.995 238.64L123.975 239.205L124.021 239.203C124.461 239.188 124.876 239.01 125.206 238.721C125.479 238.503 125.708 238.235 125.861 237.921L125.887 237.868L132.017 221.24L132.024 221.052C132.04 220.67 131.928 220.294 131.718 219.975C131.442 219.55 130.978 219.28 130.471 219.261L117.568 218.693ZM187.76 215.703L187.8 215.78C187.803 215.787 187.808 215.82 187.81 215.825C187.818 215.84 187.763 215.717 187.764 215.717C187.764 215.717 187.76 215.705 187.76 215.703ZM154.99 215.442L141.093 218.443C140.757 218.509 140.444 218.657 140.168 218.859C139.845 219.085 139.596 219.404 139.474 219.779L139.432 219.906L139.2 222.48L139.24 222.66C139.384 223.311 139.997 223.651 140.399 223.73C140.688 223.791 140.986 223.794 141.275 223.73L148.027 222.272L138.275 234.603L138.259 234.625C138.163 234.759 138.118 234.919 138.058 235.072L137.87 235.287L137.622 238.129L137.658 238.3C137.749 238.735 138.183 239.233 138.607 239.382C139.032 239.531 139.362 239.484 139.663 239.42L139.665 239.419L153.571 236.412C153.89 236.347 154.185 236.202 154.451 236.016C154.841 235.769 155.123 235.379 155.207 234.923L155.216 234.872L155.447 232.407L155.407 232.225C155.269 231.604 154.68 231.25 154.333 231.154L154.313 231.149L154.294 231.144C153.984 231.07 153.662 231.07 153.353 231.144L146.441 232.62L156.411 219.71C156.657 219.395 156.815 219.02 156.87 218.624L156.874 218.594L157.034 216.717L156.994 216.537C156.897 216.109 156.454 215.611 156.028 215.469C155.602 215.327 155.281 215.38 154.99 215.442L154.99 215.442ZM93.2698 214.073L93.2708 214.078C93.2821 214.158 93.2821 214.24 93.2708 214.32L93.2698 214.323C93.2717 214.239 93.282 214.156 93.2698 214.073ZM92.5911 212.555L92.3143 212.6C91.8527 212.673 91.4416 212.938 91.1856 213.329L91.1374 213.403L90.9476 213.817L90.9235 213.989C90.9148 214.05 90.9245 214.112 90.9235 214.174L90.9059 214.294L91.1763 218.173C90.9244 218.178 90.6734 218.13 90.4226 218.158C89.6324 218.239 88.8527 218.4 88.0958 218.641C87.3433 218.878 86.6224 219.204 85.9476 219.613C85.2757 220.01 84.6941 220.544 84.2421 221.181L84.2411 221.183L81.7189 224.76L81.5254 225.262L81.5143 225.296C81.3207 225.905 81.267 226.548 81.3522 227.181C81.4276 227.801 81.6229 228.4 81.931 228.942L81.9347 228.95C82.2515 229.499 82.6709 229.982 83.1681 230.375C83.6828 230.794 84.2711 231.113 84.9042 231.313L84.9061 231.314L95.7136 234.684L95.7589 234.694C96.1864 234.792 96.6299 234.726 97.021 234.531C97.3436 234.389 97.6372 234.186 97.8654 233.917L97.8997 233.876L107.963 219.553L107.433 219.972C107.806 219.823 107.91 219.637 107.984 219.53C108.058 219.424 108.089 219.356 108.115 219.298C108.164 219.187 108.187 219.113 108.212 219.032V219.03C108.3 218.755 108.364 218.363 108.179 217.932C107.995 217.502 107.568 217.214 107.247 217.117L104.868 216.374L104.852 216.369C104.41 216.245 103.939 216.309 103.538 216.529C103.245 216.68 102.986 216.889 102.791 217.154L102.783 217.165L94.5713 228.876L88.4036 226.952L88.3915 226.949C88.2371 226.904 88.0936 226.827 87.9693 226.726C87.878 226.647 87.8016 226.553 87.7425 226.448C87.7056 226.375 87.6813 226.296 87.6749 226.215L87.6739 226.202L87.673 226.188C87.6674 226.134 87.6753 226.08 87.6887 226.026L87.6952 226.011L89.1878 223.872C89.2701 223.763 89.3752 223.674 89.4961 223.611L89.5009 223.609L89.5056 223.606C89.7387 223.482 89.9872 223.389 90.2445 223.33L90.25 223.329L90.2556 223.327C90.5437 223.258 90.8389 223.223 91.1352 223.223H91.1419C91.392 223.221 91.6403 223.257 91.8798 223.329L95.4965 224.456H95.9428L95.753 224.44C96.2812 224.525 96.8189 224.299 97.1261 223.861L97.0094 224.002L97.452 223.543L97.6391 222.956L97.6224 222.727L97.053 215.061L97.0558 215.176C97.0636 214.833 96.9292 214.398 96.6725 214.105C96.4157 213.812 96.1099 213.668 95.8419 213.585L92.5911 212.555ZM67.3562 204.556H67.3628C67.6336 204.573 67.9014 204.626 68.1582 204.714L68.1647 204.715L68.1712 204.718C68.4221 204.801 68.6614 204.915 68.8832 205.058C68.8842 205.059 68.8856 205.059 68.887 205.06L74.4474 208.787L74.478 208.804C74.7671 208.974 74.9952 209.229 75.1428 209.529C75.15 209.554 75.1512 209.578 75.1354 209.601L75.103 209.646L75.0752 209.693C75.0728 209.698 75.0701 209.701 75.0659 209.704L75.0039 209.742L74.9465 209.787L68.3592 214.981L68.3426 214.995C68.2942 215.036 68.2359 215.063 68.1731 215.072L68.1453 215.076L68.1185 215.081C67.848 215.133 67.5724 215.153 67.2972 215.142H67.2925C66.9771 215.129 66.6632 215.084 66.3573 215.006L66.3525 215.005L66.3478 215.004C66.112 214.946 65.888 214.849 65.6839 214.717L60.1406 211.007L60.1258 210.999C59.8714 210.839 59.6785 210.599 59.5757 210.317L59.5646 210.286L59.5517 210.256C59.5208 210.184 59.53 210.105 59.5711 210.039L59.585 210.021L59.6582 209.943L66.1027 204.825C66.248 204.726 66.4111 204.656 66.5833 204.621L66.5981 204.618L66.6138 204.614C66.8573 204.559 67.107 204.539 67.3562 204.556ZM67.2636 199.411C66.5194 199.394 65.7753 199.448 65.0414 199.573C64.33 199.684 63.6357 199.885 62.9756 200.173L62.8321 200.235L54.2665 207.058L54.1628 207.216C53.8138 207.746 53.5723 208.34 53.4527 208.963V208.965L53.4517 208.969C53.3355 209.593 53.3368 210.233 53.4517 210.857C53.5625 211.501 53.7901 212.12 54.1258 212.68C54.1262 212.681 54.1263 212.682 54.1268 212.682C54.4893 213.296 54.9895 213.817 55.5879 214.204C55.5888 214.205 55.5888 214.206 55.5898 214.206L63.009 219.169L63.01 219.17C63.6601 219.604 64.3809 219.92 65.1396 220.106C65.8798 220.294 66.639 220.394 67.4025 220.403H67.4035C68.1449 220.411 68.8851 220.342 69.6128 220.2C70.3052 220.071 70.9784 219.855 71.6155 219.555L71.7396 219.496L80.263 212.719L80.4111 212.485C80.7255 212.015 80.9804 211.508 81.1713 210.975L81.1723 210.974C81.3848 210.379 81.4644 209.745 81.4065 209.116L81.4056 209.101L81.4037 209.086C81.3245 208.413 81.086 207.767 80.7083 207.204L80.7036 207.196L80.698 207.189C80.2458 206.536 79.6657 205.982 78.9924 205.56L79.023 205.58L71.5426 200.572L71.5388 200.569C70.9151 200.158 70.2226 199.864 69.4944 199.698C68.764 199.522 68.0168 199.425 67.2657 199.411L67.2636 199.411ZM193.571 194.841L193.643 195.031C193.614 195.004 193.598 194.937 193.571 194.841ZM194.617 193.024C194.155 192.932 193.678 193.126 193.423 193.326L193.42 193.328L191.45 194.9L191.426 194.921C191.093 195.217 190.892 195.63 190.846 196.072C190.802 196.41 190.832 196.756 190.953 197.075L190.954 197.076L196.039 210.432L190.969 214.481L190.944 214.504C190.72 214.705 190.434 214.82 190.135 214.833H190.134C190.057 214.836 189.986 214.805 189.938 214.745L189.922 214.725L189.85 214.584L188.896 212.113C188.862 212.002 188.848 211.886 188.858 211.771L188.859 211.756L188.859 211.74C188.874 211.496 188.921 211.255 188.999 211.024V211.023C189.097 210.732 189.227 210.452 189.386 210.19L189.391 210.183L189.396 210.175C189.536 209.936 189.718 209.727 189.935 209.555L189.937 209.553L192.556 207.46L192.575 207.443C192.779 207.265 192.94 207.047 193.08 206.816C193.36 206.414 193.463 205.911 193.334 205.437L193.32 205.387L192.456 203.051L192.343 202.907C192.053 202.534 191.379 202.29 190.936 202.368C190.493 202.446 190.236 202.638 189.997 202.833C189.996 202.833 189.995 202.833 189.995 202.834L186.5 205.645L186.489 205.655C185.886 206.166 185.383 206.785 185.001 207.477C184.575 208.205 184.233 208.979 183.986 209.786C183.731 210.589 183.576 211.422 183.524 212.263C183.455 213.1 183.578 213.943 183.887 214.724L185.429 218.795L185.732 219.234L185.757 219.265C186.155 219.768 186.659 220.176 187.233 220.462C187.786 220.742 188.389 220.912 189.007 220.962C189.636 221.015 190.27 220.945 190.873 220.757C191.527 220.559 192.137 220.235 192.664 219.799L201.492 212.75L201.527 212.716C201.844 212.417 202.029 212.012 202.087 211.583C202.158 211.244 202.171 210.893 202.087 210.556L202.07 210.486L195.865 194.203C195.818 194.021 195.748 193.913 195.705 193.843C195.64 193.737 195.586 193.671 195.529 193.603C195.354 193.384 195.074 193.114 194.617 193.024ZM65.9481 41.4052C52.1689 51.2597 40.935 64.2545 33.1763 79.3138C25.4176 94.3731 21.3573 111.064 21.3315 128.004C21.3646 149.256 27.745 170.013 39.6545 187.614L47.7052 182.594C36.731 166.501 30.8457 147.482 30.8126 128.004C30.8361 112.671 34.4872 97.5616 41.4675 83.9097C48.4479 70.2578 58.5594 58.4513 70.9756 49.4549L65.9481 41.4052ZM190.042 41.3449L185.003 49.4099C197.428 58.4084 207.547 70.2209 214.531 83.8808C221.515 97.5407 225.166 112.66 225.185 128.002C225.164 147.089 219.522 165.747 208.965 181.648L216.475 187.516C228.319 169.928 234.653 149.209 234.667 128.005C234.649 111.054 230.592 94.3519 222.831 79.2819C215.071 64.2119 203.83 51.2085 190.042 41.3492V41.3449Z" fill="#00A2F3"/>
</g>
<defs>
<clipPath id="clip0_120_328">
<rect width="256" height="256" fill="white"/>
</clipPath>
</defs>
</svg>
